<svg id="Layer_1" data-name="Layer 1" xmlns="http://www.w3.org/2000/svg" viewBox="0 0 134.42 134.42"><defs><style>.cls-1{fill:#050505;}</style></defs><g id="_5WsUnF.tif" data-name="5WsUnF.tif"><path class="cls-1" d="M61.8,67.35c-.51-.44-.79-.64-1-.89L28,33.66a4,4,0,0,1-1.33-3.94,4,4,0,0,1,6.5-2.12c.26.23.5.48.74.72Q50.18,44.61,66.46,60.91c.22.22.41.48.67.79l.75-.71Q84.35,44.54,100.8,28.07a4.05,4.05,0,0,1,4.08-1.34A4,4,0,0,1,107,33.05a8.37,8.37,0,0,1-.82.87Q89.9,50.24,73.56,66.55a6.31,6.31,0,0,1-.81.6l.78.83,32.87,32.86a4.08,4.08,0,0,1,1.38,4,4,4,0,0,1-6.49,2.13c-.24-.21-.46-.44-.69-.66L68,73.71c-.24-.24-.44-.52-.72-.85l-.76.72L33.62,106.5c-1.56,1.55-3.37,1.89-5,1a4,4,0,0,1-1.22-5.89,9.48,9.48,0,0,1,.81-.87L60.87,68A8.07,8.07,0,0,1,61.8,67.35Z"/></g></svg>