<?xml version="1.0" encoding="utf-8"?>
<!-- Generator: Adobe Illustrator 25.4.0, SVG Export Plug-In . SVG Version: 6.00 Build 0)  -->
<svg version="1.1" id="Layer_1" xmlns="http://www.w3.org/2000/svg" xmlns:xlink="http://www.w3.org/1999/xlink" x="0px" y="0px"
	 viewBox="0 0 18.1 14.6" style="enable-background:new 0 0 18.1 14.6;" xml:space="preserve">
<g id="zqx7Gq.tif">
	<path d="M4.2,2.4c3.2-0.9,6.5-0.9,9.7,0c-0.8-0.6-1.7-1.1-2.6-1.4l0.4-1c0.4,0.2,0.7,0.3,1.1,0.5c1,0.4,1.9,1,2.7,1.8
		c0.2,0.2,0.4,0.5,0.5,0.7c0.8,1.7,1.4,3.4,1.7,5.3c0.2,1.2,0.3,2.4,0.5,3.7c0,0.1,0,0.2-0.1,0.3c-0.7,0.9-1.7,1.6-2.8,2
		c-0.8,0.2-1.5,0.4-2.3,0.4c-0.1,0-0.1,0-0.2-0.1c-0.3-0.4-0.6-0.9-0.9-1.4c1.1-0.3,2.2-0.8,3.1-1.4L14.3,11
		c-3.2,2.1-7.3,2.1-10.5,0l-0.6,0.9c0.9,0.6,2,1.1,3.1,1.4l-0.1,0.1c-0.3,0.4-0.6,0.8-0.8,1.2c0,0.1-0.1,0.1-0.2,0.1
		c-1.6,0-3.2-0.5-4.5-1.6c-0.3-0.3-0.5-0.5-0.7-0.8C0,12.2,0,12.1,0,12c0.1-1.8,0.4-3.6,0.8-5.3c0.3-1.2,0.7-2.3,1.2-3.4
		c0.3-0.6,0.7-1.2,1.3-1.6C4.3,1,5.4,0.4,6.5,0l0.4,1C5.9,1.3,5,1.8,4.2,2.4z M5.6,7.3V9h1V7.3H5.6z M12.6,9V7.3h-1V9H12.6z"/>
</g>
</svg>
