<?xml version="1.0" encoding="utf-8"?>
<!-- Generator: Adobe Illustrator 25.4.0, SVG Export Plug-In . SVG Version: 6.00 Build 0)  -->
<svg version="1.1" id="Layer_1" xmlns="http://www.w3.org/2000/svg" xmlns:xlink="http://www.w3.org/1999/xlink" x="0px" y="0px"
	 viewBox="0 0 18.1 14.3" style="enable-background:new 0 0 18.1 14.3;" xml:space="preserve">
<g id="udR8eA.tif">
	<path d="M3.2,4.1v7c0,0.2,0.1,0.4,0.2,0.6l1.8,2.2c0.1,0.1,0.2,0.3,0.1,0.4H0c0-0.2,0-0.3,0.1-0.4l1.8-2.2c0.2-0.2,0.2-0.4,0.2-0.6
		c0-0.7,0-1.4,0-2.1v-6c0-0.2,0-0.4-0.2-0.6c-0.6-0.7-1.1-1.3-1.7-2C0.3,0.3,0.2,0.2,0.2,0.1c0,0,0-0.1,0.1-0.1s0.1,0,0.1,0h4.8
		c0.1,0,0.2,0.1,0.3,0.2C6.8,3,8.1,5.8,9.4,8.7c0,0.1,0.1,0.1,0.1,0.2c0-0.1,0.1-0.1,0.1-0.2C10.8,5.8,11.9,3,13,0.2
		C13,0.1,13.2,0,13.3,0h4.8c0.1,0.1,0,0.3-0.1,0.4l-1.3,1.2c-0.1,0.1-0.2,0.3-0.2,0.5c0,0.4,0,0.7,0,1.1c0,2.9,0,5.9,0,8.8
		c0,0.3,0.1,0.6,0.3,0.8c0.4,0.4,0.7,0.7,1.1,1.1c0.1,0.1,0.2,0.3,0.1,0.4H11c0-0.1,0-0.3,0.1-0.4c0.4-0.4,0.9-0.8,1.3-1.2
		c0.1-0.1,0.2-0.2,0.2-0.4V4.2c0,0,0,0,0-0.1s-0.1,0.1-0.1,0.2l-3.9,9.9c-0.1,0.2-0.1,0.2-0.3,0.2H8.1c-0.1,0-0.2-0.1-0.3-0.2
		c-1.5-3.3-3-6.6-4.5-9.8C3.4,4.2,3.3,4.1,3.2,4.1L3.2,4.1z"/>
</g>
</svg>
