<?xml version="1.0" encoding="utf-8"?>
<!-- Generator: Adobe Illustrator 25.4.0, SVG Export Plug-In . SVG Version: 6.00 Build 0)  -->
<svg version="1.1" id="Layer_1" xmlns="http://www.w3.org/2000/svg" xmlns:xlink="http://www.w3.org/1999/xlink" x="0px" y="0px"
	 viewBox="0 0 18.1 15.1" style="enable-background:new 0 0 18.1 15.1;" xml:space="preserve">
<g id="notNdv.tif">
	<path d="M6.8,14.2l0.1-1.8c0.1-0.8,0.1-1.5,0.2-2.3c0-0.1,0.1-0.2,0.1-0.2l7.5-6.8L14.8,3l0.1-0.3c-0.1,0-0.2,0-0.3,0
		c-0.1,0-0.2,0.1-0.4,0.2L4.9,8.7c-0.1,0.1-0.2,0.1-0.3,0L0.7,7.6C0.5,7.5,0.4,7.4,0.2,7.3C0,7.2,0,7,0.1,6.8c0-0.1,0.1-0.1,0.1-0.1
		c0.2-0.2,0.4-0.3,0.6-0.4c1.2-0.5,2.5-1,3.7-1.4l12.3-4.7C17,0.1,17.1,0,17.2,0c0.4-0.1,0.8,0.2,0.9,0.6c0,0.1,0,0.2,0,0.2
		c0,0.4-0.1,0.8-0.2,1.2c-0.9,4-1.7,8-2.6,12.1c0,0.2-0.1,0.4-0.2,0.6C15,15,14.6,15.2,14.3,15c-0.2-0.1-0.4-0.1-0.5-0.2L9.8,12
		c-0.1-0.1-0.2-0.1-0.3,0l-2,1.9C7.3,14.1,7.1,14.2,6.8,14.2z"/>
</g>
</svg>
