<?xml version="1.0" encoding="utf-8"?>
<!-- Generator: Adobe Illustrator 25.4.0, SVG Export Plug-In . SVG Version: 6.00 Build 0)  -->
<svg version="1.1" id="Layer_1" xmlns="http://www.w3.org/2000/svg" xmlns:xlink="http://www.w3.org/1999/xlink" x="0px" y="0px"
	 viewBox="0 0 18 14.7" style="enable-background:new 0 0 18 14.7;" xml:space="preserve">
<g id="OuiC4f.tif">
	<path d="M0,13.1c1.9,0.2,3.9-0.3,5.4-1.5C3.9,11.5,2.5,10.5,2,9c0.5,0.1,1.1,0,1.6-0.1C1.9,8.5,0.7,7,0.7,5.2
		c0.5,0.3,1.1,0.4,1.6,0.4C1.6,5.1,1,4.3,0.8,3.4C0.6,2.5,0.7,1.5,1.2,0.7C3.1,3,5.9,4.4,8.8,4.6c0-0.4-0.1-0.7,0-1.1
		c0.1-2,1.9-3.6,3.9-3.5c0.9,0,1.8,0.4,2.4,1.1c0.1,0.1,0.2,0.1,0.2,0.1c0.7-0.2,1.4-0.4,2-0.8l0.2-0.1c-0.3,0.8-0.8,1.5-1.5,2
		c0.7-0.1,1.4-0.3,2-0.5c-0.1,0.2-0.3,0.4-0.4,0.5c-0.4,0.4-0.9,0.8-1.3,1.2c-0.1,0.1-0.1,0.1-0.1,0.2c0.1,2.2-0.6,4.5-1.8,6.3
		c-1.1,1.7-2.7,3-4.6,3.8c-1,0.4-2.1,0.7-3.2,0.8c-1.3,0.1-2.6,0-3.9-0.4C1.7,14,0.9,13.6,0,13.1L0,13.1z"/>
</g>
</svg>
